<?xml version="1.0" encoding="UTF-8" standalone="no"?>
<!DOCTYPE svg PUBLIC "-//W3C//DTD SVG 1.1//EN"
 "http://www.w3.org/Graphics/SVG/1.1/DTD/svg11.dtd">
<!-- Generated by graphviz version 9.0.0 (20230911.1827)
 -->
<!-- Pages: 1 -->
<svg width="1922pt" height="1052pt"
 viewBox="0.00 0.00 1922.00 1052.00" xmlns="http://www.w3.org/2000/svg" xmlns:xlink="http://www.w3.org/1999/xlink">
<g id="graph0" class="graph" transform="scale(1 1) rotate(0) translate(4 1048)">
<polygon fill="white" stroke="none" points="-4,4 -4,-1048 1918,-1048 1918,4 -4,4"/>
<!-- rh -->
<g id="node1" class="node">
<title>rh</title>
<ellipse fill="none" stroke="black" cx="1652" cy="-1026" rx="27" ry="18"/>
<text text-anchor="middle" x="1652" y="-1020.95" font-family="Times,serif" font-size="14.00">rh</text>
</g>
<!-- qq -->
<g id="node2" class="node">
<title>qq</title>
<ellipse fill="none" stroke="black" cx="1652" cy="-954" rx="27" ry="18"/>
<text text-anchor="middle" x="1652" y="-948.95" font-family="Times,serif" font-size="14.00">qq</text>
</g>
<!-- rh&#45;&#45;qq -->
<g id="edge1" class="edge">
<title>rh&#45;&#45;qq</title>
<path fill="none" stroke="black" d="M1652,-1007.7C1652,-996.85 1652,-982.92 1652,-972.1"/>
</g>
<!-- lp -->
<g id="node3" class="node">
<title>lp</title>
<ellipse fill="none" stroke="black" cx="1783" cy="-882" rx="27" ry="18"/>
<text text-anchor="middle" x="1783" y="-876.95" font-family="Times,serif" font-size="14.00">lp</text>
</g>
<!-- rh&#45;&#45;lp -->
<g id="edge2" class="edge">
<title>rh&#45;&#45;lp</title>
<path fill="none" stroke="black" d="M1665.77,-1010.07C1691,-982.73 1744.33,-924.92 1769.41,-897.73"/>
</g>
<!-- qq&#45;&#45;lp -->
<g id="edge55" class="edge">
<title>qq&#45;&#45;lp</title>
<path fill="none" stroke="black" d="M1672.76,-941.91C1697.29,-928.8 1737.85,-907.12 1762.34,-894.04"/>
</g>
<!-- lm -->
<g id="node18" class="node">
<title>lm</title>
<ellipse fill="none" stroke="black" cx="1154" cy="-810" rx="27" ry="18"/>
<text text-anchor="middle" x="1154" y="-804.95" font-family="Times,serif" font-size="14.00">lm</text>
</g>
<!-- qq&#45;&#45;lm -->
<g id="edge56" class="edge">
<title>qq&#45;&#45;lm</title>
<path fill="none" stroke="black" d="M1625.09,-950.91C1554.52,-945.09 1365.76,-927.35 1310,-900 1289.11,-889.75 1291.33,-876.95 1272,-864 1241.77,-843.75 1202.55,-827.91 1177.82,-819"/>
</g>
<!-- gr -->
<g id="node32" class="node">
<title>gr</title>
<ellipse fill="none" stroke="black" cx="1786" cy="-522" rx="27" ry="18"/>
<text text-anchor="middle" x="1786" y="-516.95" font-family="Times,serif" font-size="14.00">gr</text>
</g>
<!-- qq&#45;&#45;gr -->
<g id="edge57" class="edge">
<title>qq&#45;&#45;gr</title>
<path fill="none" stroke="black" d="M1679.24,-952.38C1716.46,-950 1782.72,-939.98 1819,-900 1846.18,-870.05 1838,-851.45 1838,-811 1838,-811 1838,-811 1838,-665 1838,-616.69 1811.14,-564.47 1796.03,-538.92"/>
</g>
<!-- cv -->
<g id="node43" class="node">
<title>cv</title>
<ellipse fill="none" stroke="black" cx="1688" cy="-738" rx="27" ry="18"/>
<text text-anchor="middle" x="1688" y="-732.95" font-family="Times,serif" font-size="14.00">cv</text>
</g>
<!-- qq&#45;&#45;cv -->
<g id="edge58" class="edge">
<title>qq&#45;&#45;cv</title>
<path fill="none" stroke="black" d="M1652.93,-935.9C1654.79,-906.3 1659.77,-843.71 1671,-792 1673.67,-779.72 1678.01,-766.25 1681.64,-755.96"/>
</g>
<!-- vq -->
<g id="node44" class="node">
<title>vq</title>
<ellipse fill="none" stroke="black" cx="1688" cy="-666" rx="27" ry="18"/>
<text text-anchor="middle" x="1688" y="-660.95" font-family="Times,serif" font-size="14.00">vq</text>
</g>
<!-- qq&#45;&#45;vq -->
<g id="edge59" class="edge">
<title>qq&#45;&#45;vq</title>
<path fill="none" stroke="black" d="M1648.6,-935.81C1641.55,-896.5 1627.89,-797.44 1652,-720 1656.43,-705.77 1666.09,-691.91 1674.28,-681.94"/>
</g>
<!-- bt -->
<g id="node47" class="node">
<title>bt</title>
<ellipse fill="none" stroke="black" cx="1762" cy="-594" rx="27" ry="18"/>
<text text-anchor="middle" x="1762" y="-588.95" font-family="Times,serif" font-size="14.00">bt</text>
</g>
<!-- qq&#45;&#45;bt -->
<g id="edge60" class="edge">
<title>qq&#45;&#45;bt</title>
<path fill="none" stroke="black" d="M1666.99,-938.52C1688.33,-916.8 1726.7,-873.48 1743,-828 1770.46,-751.4 1766.56,-651.86 1763.58,-612.3"/>
</g>
<!-- pl -->
<g id="node48" class="node">
<title>pl</title>
<ellipse fill="none" stroke="black" cx="1236" cy="-882" rx="27" ry="18"/>
<text text-anchor="middle" x="1236" y="-876.95" font-family="Times,serif" font-size="14.00">pl</text>
</g>
<!-- qq&#45;&#45;pl -->
<g id="edge61" class="edge">
<title>qq&#45;&#45;pl</title>
<path fill="none" stroke="black" d="M1624.85,-951.78C1561.07,-948.2 1398.34,-935.61 1268,-900 1263.54,-898.78 1258.92,-897.2 1254.57,-895.49"/>
</g>
<!-- lz -->
<g id="node13" class="node">
<title>lz</title>
<ellipse fill="none" stroke="black" cx="1707" cy="-810" rx="27" ry="18"/>
<text text-anchor="middle" x="1707" y="-804.95" font-family="Times,serif" font-size="14.00">lz</text>
</g>
<!-- lp&#45;&#45;lz -->
<g id="edge9" class="edge">
<title>lp&#45;&#45;lz</title>
<path fill="none" stroke="black" d="M1767.62,-866.83C1754.43,-854.69 1735.54,-837.28 1722.36,-825.14"/>
</g>
<!-- lr -->
<g id="node4" class="node">
<title>lr</title>
<ellipse fill="none" stroke="black" cx="74" cy="-234" rx="27" ry="18"/>
<text text-anchor="middle" x="74" y="-228.95" font-family="Times,serif" font-size="14.00">lr</text>
</g>
<!-- bx -->
<g id="node5" class="node">
<title>bx</title>
<ellipse fill="none" stroke="black" cx="247" cy="-954" rx="27" ry="18"/>
<text text-anchor="middle" x="247" y="-948.95" font-family="Times,serif" font-size="14.00">bx</text>
</g>
<!-- lr&#45;&#45;bx -->
<g id="edge3" class="edge">
<title>lr&#45;&#45;bx</title>
<path fill="none" stroke="black" d="M66.89,-251.7C56.4,-277.89 38,-330.46 38,-377 38,-811 38,-811 38,-811 38,-856.15 52.28,-871.13 87,-900 126.15,-932.55 186,-945.34 220.32,-950.19"/>
</g>
<!-- fr -->
<g id="node6" class="node">
<title>fr</title>
<ellipse fill="none" stroke="black" cx="74" cy="-162" rx="27" ry="18"/>
<text text-anchor="middle" x="74" y="-156.95" font-family="Times,serif" font-size="14.00">fr</text>
</g>
<!-- lr&#45;&#45;fr -->
<g id="edge4" class="edge">
<title>lr&#45;&#45;fr</title>
<path fill="none" stroke="black" d="M74,-215.7C74,-204.85 74,-190.92 74,-180.1"/>
</g>
<!-- ll -->
<g id="node20" class="node">
<title>ll</title>
<ellipse fill="none" stroke="black" cx="245" cy="-594" rx="27" ry="18"/>
<text text-anchor="middle" x="245" y="-588.95" font-family="Times,serif" font-size="14.00">ll</text>
</g>
<!-- bx&#45;&#45;ll -->
<g id="edge66" class="edge">
<title>bx&#45;&#45;ll</title>
<path fill="none" stroke="black" d="M243.25,-936.05C237.71,-909.52 228,-856.52 228,-811 228,-811 228,-811 228,-737 228,-691.56 236.69,-638.52 241.64,-611.97"/>
</g>
<!-- db -->
<g id="node23" class="node">
<title>db</title>
<ellipse fill="none" stroke="black" cx="986" cy="-810" rx="27" ry="18"/>
<text text-anchor="middle" x="986" y="-804.95" font-family="Times,serif" font-size="14.00">db</text>
</g>
<!-- bx&#45;&#45;db -->
<g id="edge67" class="edge">
<title>bx&#45;&#45;db</title>
<path fill="none" stroke="black" d="M274.21,-952.97C381.05,-952.53 771.45,-947.62 884,-900 922.31,-883.79 956.41,-847.45 973.8,-826.57"/>
</g>
<!-- xc -->
<g id="node52" class="node">
<title>xc</title>
<ellipse fill="none" stroke="black" cx="397" cy="-882" rx="27" ry="18"/>
<text text-anchor="middle" x="397" y="-876.95" font-family="Times,serif" font-size="14.00">xc</text>
</g>
<!-- bx&#45;&#45;xc -->
<g id="edge68" class="edge">
<title>bx&#45;&#45;xc</title>
<path fill="none" stroke="black" d="M266.91,-941.28C294.69,-927.27 344.42,-904.15 373.82,-891.66"/>
</g>
<!-- fr&#45;&#45;bx -->
<g id="edge25" class="edge">
<title>fr&#45;&#45;bx</title>
<path fill="none" stroke="black" d="M60.08,-177.84C38.65,-202.32 0,-253.57 0,-305 0,-811 0,-811 0,-811 0,-855.94 12.72,-872.15 48,-900 99.21,-940.43 178.54,-950.15 219.87,-952.4"/>
</g>
<!-- tb -->
<g id="node29" class="node">
<title>tb</title>
<ellipse fill="none" stroke="black" cx="264" cy="-90" rx="27" ry="18"/>
<text text-anchor="middle" x="264" y="-84.95" font-family="Times,serif" font-size="14.00">tb</text>
</g>
<!-- fr&#45;&#45;tb -->
<g id="edge26" class="edge">
<title>fr&#45;&#45;tb</title>
<path fill="none" stroke="black" d="M97.3,-152.42C133.86,-138.95 204.31,-112.99 240.81,-99.54"/>
</g>
<!-- tg -->
<g id="node7" class="node">
<title>tg</title>
<ellipse fill="none" stroke="black" cx="602" cy="-162" rx="27" ry="18"/>
<text text-anchor="middle" x="602" y="-156.95" font-family="Times,serif" font-size="14.00">tg</text>
</g>
<!-- bc -->
<g id="node8" class="node">
<title>bc</title>
<ellipse fill="none" stroke="black" cx="737" cy="-810" rx="27" ry="18"/>
<text text-anchor="middle" x="737" y="-804.95" font-family="Times,serif" font-size="14.00">bc</text>
</g>
<!-- tg&#45;&#45;bc -->
<g id="edge5" class="edge">
<title>tg&#45;&#45;bc</title>
<path fill="none" stroke="black" d="M628.77,-164.91C695.88,-171.3 866,-198.05 866,-305 866,-595 866,-595 866,-595 866,-672 847.52,-693.9 802,-756 789.6,-772.91 770.59,-787.57 756.32,-797.15"/>
</g>
<!-- dx -->
<g id="node9" class="node">
<title>dx</title>
<ellipse fill="none" stroke="black" cx="545" cy="-90" rx="27" ry="18"/>
<text text-anchor="middle" x="545" y="-84.95" font-family="Times,serif" font-size="14.00">dx</text>
</g>
<!-- tg&#45;&#45;dx -->
<g id="edge6" class="edge">
<title>tg&#45;&#45;dx</title>
<path fill="none" stroke="black" d="M589.63,-145.81C580.07,-134.07 566.9,-117.89 557.34,-106.16"/>
</g>
<!-- mm -->
<g id="node15" class="node">
<title>mm</title>
<ellipse fill="none" stroke="black" cx="659" cy="-378" rx="27" ry="18"/>
<text text-anchor="middle" x="659" y="-372.95" font-family="Times,serif" font-size="14.00">mm</text>
</g>
<!-- bc&#45;&#45;mm -->
<g id="edge38" class="edge">
<title>bc&#45;&#45;mm</title>
<path fill="none" stroke="black" d="M720.02,-795.7C692.69,-772.67 642,-722.47 642,-667 642,-667 642,-667 642,-521 642,-475.56 650.69,-422.52 655.64,-395.97"/>
</g>
<!-- gz -->
<g id="node16" class="node">
<title>gz</title>
<ellipse fill="none" stroke="black" cx="621" cy="-306" rx="27" ry="18"/>
<text text-anchor="middle" x="621" y="-300.95" font-family="Times,serif" font-size="14.00">gz</text>
</g>
<!-- bc&#45;&#45;gz -->
<g id="edge39" class="edge">
<title>bc&#45;&#45;gz</title>
<path fill="none" stroke="black" d="M715.63,-798.66C678.04,-778.81 604,-731.52 604,-667 604,-667 604,-667 604,-449 604,-403.56 612.69,-350.52 617.64,-323.97"/>
</g>
<!-- mn -->
<g id="node37" class="node">
<title>mn</title>
<ellipse fill="none" stroke="black" cx="848" cy="-882" rx="27" ry="18"/>
<text text-anchor="middle" x="848" y="-876.95" font-family="Times,serif" font-size="14.00">mn</text>
</g>
<!-- bc&#45;&#45;mn -->
<g id="edge40" class="edge">
<title>bc&#45;&#45;mn</title>
<path fill="none" stroke="black" d="M758.44,-821.39C779.89,-833.54 812.04,-853.7 831.57,-867.17"/>
</g>
<!-- zl -->
<g id="node38" class="node">
<title>zl</title>
<ellipse fill="none" stroke="black" cx="735" cy="-594" rx="27" ry="18"/>
<text text-anchor="middle" x="735" y="-588.95" font-family="Times,serif" font-size="14.00">zl</text>
</g>
<!-- bc&#45;&#45;zl -->
<g id="edge41" class="edge">
<title>bc&#45;&#45;zl</title>
<path fill="none" stroke="black" d="M736.84,-791.85C736.47,-751.78 735.54,-652.38 735.16,-612.23"/>
</g>
<!-- xb -->
<g id="node39" class="node">
<title>xb</title>
<ellipse fill="none" stroke="black" cx="773" cy="-666" rx="27" ry="18"/>
<text text-anchor="middle" x="773" y="-660.95" font-family="Times,serif" font-size="14.00">xb</text>
</g>
<!-- bc&#45;&#45;xb -->
<g id="edge42" class="edge">
<title>bc&#45;&#45;xb</title>
<path fill="none" stroke="black" d="M741.34,-791.87C748.26,-764.58 761.71,-711.52 768.64,-684.19"/>
</g>
<!-- dh -->
<g id="node40" class="node">
<title>dh</title>
<ellipse fill="none" stroke="black" cx="887" cy="-738" rx="27" ry="18"/>
<text text-anchor="middle" x="887" y="-732.95" font-family="Times,serif" font-size="14.00">dh</text>
</g>
<!-- bc&#45;&#45;dh -->
<g id="edge43" class="edge">
<title>bc&#45;&#45;dh</title>
<path fill="none" stroke="black" d="M758.81,-798.82C787.25,-785.55 836.71,-762.47 865.16,-749.19"/>
</g>
<!-- hv -->
<g id="node41" class="node">
<title>hv</title>
<ellipse fill="none" stroke="black" cx="959" cy="-738" rx="27" ry="18"/>
<text text-anchor="middle" x="959" y="-732.95" font-family="Times,serif" font-size="14.00">hv</text>
</g>
<!-- bc&#45;&#45;hv -->
<g id="edge44" class="edge">
<title>bc&#45;&#45;hv</title>
<path fill="none" stroke="black" d="M762.39,-803.16C798.6,-794.53 866.89,-777.08 923,-756 927.92,-754.15 933.09,-751.9 937.93,-749.65"/>
</g>
<!-- dx&#45;&#45;bc -->
<g id="edge53" class="edge">
<title>dx&#45;&#45;bc</title>
<path fill="none" stroke="black" d="M541.64,-107.97C536.69,-134.52 528,-187.56 528,-233 528,-667 528,-667 528,-667 528,-712.15 542.28,-727.13 577,-756 616.15,-788.55 676,-801.34 710.32,-806.19"/>
</g>
<!-- hk -->
<g id="node22" class="node">
<title>hk</title>
<ellipse fill="none" stroke="black" cx="517" cy="-18" rx="27" ry="18"/>
<text text-anchor="middle" x="517" y="-12.95" font-family="Times,serif" font-size="14.00">hk</text>
</g>
<!-- dx&#45;&#45;hk -->
<g id="edge54" class="edge">
<title>dx&#45;&#45;hk</title>
<path fill="none" stroke="black" d="M538.36,-72.41C533.9,-61.25 528.04,-46.6 523.59,-35.47"/>
</g>
<!-- jf -->
<g id="node10" class="node">
<title>jf</title>
<ellipse fill="none" stroke="black" cx="1217" cy="-234" rx="27" ry="18"/>
<text text-anchor="middle" x="1217" y="-228.95" font-family="Times,serif" font-size="14.00">jf</text>
</g>
<!-- qc -->
<g id="node11" class="node">
<title>qc</title>
<ellipse fill="none" stroke="black" cx="1190" cy="-162" rx="27" ry="18"/>
<text text-anchor="middle" x="1190" y="-156.95" font-family="Times,serif" font-size="14.00">qc</text>
</g>
<!-- jf&#45;&#45;qc -->
<g id="edge7" class="edge">
<title>jf&#45;&#45;qc</title>
<path fill="none" stroke="black" d="M1210.46,-216.05C1206.22,-205.05 1200.71,-190.76 1196.48,-179.79"/>
</g>
<!-- gj -->
<g id="node12" class="node">
<title>gj</title>
<ellipse fill="none" stroke="black" cx="1314" cy="-738" rx="27" ry="18"/>
<text text-anchor="middle" x="1314" y="-732.95" font-family="Times,serif" font-size="14.00">gj</text>
</g>
<!-- jf&#45;&#45;gj -->
<g id="edge8" class="edge">
<title>jf&#45;&#45;gj</title>
<path fill="none" stroke="black" d="M1213.64,-251.97C1208.69,-278.52 1200,-331.56 1200,-377 1200,-595 1200,-595 1200,-595 1200,-654.75 1262.14,-703.67 1294.66,-725.19"/>
</g>
<!-- qc&#45;&#45;gj -->
<g id="edge31" class="edge">
<title>qc&#45;&#45;gj</title>
<path fill="none" stroke="black" d="M1184.47,-179.84C1176.31,-206.21 1162,-259.02 1162,-305 1162,-595 1162,-595 1162,-595 1162,-640.37 1179.4,-652.45 1212,-684 1234.51,-705.79 1267.78,-720.79 1290.14,-729.13"/>
</g>
<!-- sf -->
<g id="node34" class="node">
<title>sf</title>
<ellipse fill="none" stroke="black" cx="1190" cy="-90" rx="27" ry="18"/>
<text text-anchor="middle" x="1190" y="-84.95" font-family="Times,serif" font-size="14.00">sf</text>
</g>
<!-- qc&#45;&#45;sf -->
<g id="edge32" class="edge">
<title>qc&#45;&#45;sf</title>
<path fill="none" stroke="black" d="M1190,-143.7C1190,-132.85 1190,-118.92 1190,-108.1"/>
</g>
<!-- ks -->
<g id="node25" class="node">
<title>ks</title>
<ellipse fill="none" stroke="black" cx="1483" cy="-666" rx="27" ry="18"/>
<text text-anchor="middle" x="1483" y="-660.95" font-family="Times,serif" font-size="14.00">ks</text>
</g>
<!-- gj&#45;&#45;ks -->
<g id="edge104" class="edge">
<title>gj&#45;&#45;ks</title>
<path fill="none" stroke="black" d="M1336.66,-727.62C1362.24,-717.03 1405.11,-699.28 1442,-684 1447.98,-681.52 1454.45,-678.84 1460.44,-676.35"/>
</g>
<!-- sg -->
<g id="node36" class="node">
<title>sg</title>
<ellipse fill="none" stroke="black" cx="1107" cy="-666" rx="27" ry="18"/>
<text text-anchor="middle" x="1107" y="-660.95" font-family="Times,serif" font-size="14.00">sg</text>
</g>
<!-- gj&#45;&#45;sg -->
<g id="edge105" class="edge">
<title>gj&#45;&#45;sg</title>
<path fill="none" stroke="black" d="M1289.59,-729.91C1257.03,-720.29 1197.71,-702.21 1148,-684 1141.92,-681.77 1135.42,-679.18 1129.42,-676.7"/>
</g>
<!-- ld -->
<g id="node50" class="node">
<title>ld</title>
<ellipse fill="none" stroke="black" cx="1274" cy="-378" rx="27" ry="18"/>
<text text-anchor="middle" x="1274" y="-372.95" font-family="Times,serif" font-size="14.00">ld</text>
</g>
<!-- gj&#45;&#45;ld -->
<g id="edge106" class="edge">
<title>gj&#45;&#45;ld</title>
<path fill="none" stroke="black" d="M1299.7,-722.23C1277.69,-697.85 1238,-646.73 1238,-595 1238,-595 1238,-595 1238,-521 1238,-474.46 1256.4,-421.89 1266.89,-395.7"/>
</g>
<!-- xr -->
<g id="node55" class="node">
<title>xr</title>
<ellipse fill="none" stroke="black" cx="1346" cy="-882" rx="27" ry="18"/>
<text text-anchor="middle" x="1346" y="-876.95" font-family="Times,serif" font-size="14.00">xr</text>
</g>
<!-- gj&#45;&#45;xr -->
<g id="edge107" class="edge">
<title>gj&#45;&#45;xr</title>
<path fill="none" stroke="black" d="M1322.15,-755.24C1331.19,-782.18 1343.34,-835.89 1346.69,-863.59"/>
</g>
<!-- lz&#45;&#45;qq -->
<g id="edge69" class="edge">
<title>lz&#45;&#45;qq</title>
<path fill="none" stroke="black" d="M1700.48,-827.82C1689.9,-855.14 1669.11,-908.82 1658.53,-936.15"/>
</g>
<!-- lz&#45;&#45;cv -->
<g id="edge70" class="edge">
<title>lz&#45;&#45;cv</title>
<path fill="none" stroke="black" d="M1702.4,-792.05C1699.41,-781.05 1695.54,-766.76 1692.56,-755.79"/>
</g>
<!-- vt -->
<g id="node14" class="node">
<title>vt</title>
<ellipse fill="none" stroke="black" cx="93" cy="-306" rx="27" ry="18"/>
<text text-anchor="middle" x="93" y="-300.95" font-family="Times,serif" font-size="14.00">vt</text>
</g>
<!-- vt&#45;&#45;lr -->
<g id="edge10" class="edge">
<title>vt&#45;&#45;lr</title>
<path fill="none" stroke="black" d="M88.4,-288.05C85.41,-277.05 81.54,-262.76 78.56,-251.79"/>
</g>
<!-- vt&#45;&#45;bx -->
<g id="edge11" class="edge">
<title>vt&#45;&#45;bx</title>
<path fill="none" stroke="black" d="M89.64,-323.97C84.69,-350.52 76,-403.56 76,-449 76,-811 76,-811 76,-811 76,-857.04 94.63,-869.37 129,-900 156.16,-924.21 196.2,-939 221.94,-946.6"/>
</g>
<!-- mm&#45;&#45;gz -->
<g id="edge12" class="edge">
<title>mm&#45;&#45;gz</title>
<path fill="none" stroke="black" d="M650.19,-360.76C644.05,-349.46 635.89,-334.44 629.77,-323.15"/>
</g>
<!-- nf -->
<g id="node17" class="node">
<title>nf</title>
<ellipse fill="none" stroke="black" cx="602" cy="-234" rx="27" ry="18"/>
<text text-anchor="middle" x="602" y="-228.95" font-family="Times,serif" font-size="14.00">nf</text>
</g>
<!-- gz&#45;&#45;nf -->
<g id="edge13" class="edge">
<title>gz&#45;&#45;nf</title>
<path fill="none" stroke="black" d="M616.4,-288.05C613.41,-277.05 609.54,-262.76 606.56,-251.79"/>
</g>
<!-- nf&#45;&#45;tg -->
<g id="edge35" class="edge">
<title>nf&#45;&#45;tg</title>
<path fill="none" stroke="black" d="M602,-215.7C602,-204.85 602,-190.92 602,-180.1"/>
</g>
<!-- nf&#45;&#45;bc -->
<g id="edge36" class="edge">
<title>nf&#45;&#45;bc</title>
<path fill="none" stroke="black" d="M594.89,-251.7C584.4,-277.89 566,-330.46 566,-377 566,-667 566,-667 566,-667 566,-713.04 584.63,-725.37 619,-756 646.16,-780.21 686.2,-795 711.94,-802.6"/>
</g>
<!-- jm -->
<g id="node19" class="node">
<title>jm</title>
<ellipse fill="none" stroke="black" cx="1033" cy="-594" rx="27" ry="18"/>
<text text-anchor="middle" x="1033" y="-588.95" font-family="Times,serif" font-size="14.00">jm</text>
</g>
<!-- lm&#45;&#45;jm -->
<g id="edge14" class="edge">
<title>lm&#45;&#45;jm</title>
<path fill="none" stroke="black" d="M1142.29,-793.4C1125.26,-770.3 1093.27,-725.26 1071,-684 1057.92,-659.75 1046,-630.05 1039.13,-611.83"/>
</g>
<!-- rx -->
<g id="node42" class="node">
<title>rx</title>
<ellipse fill="none" stroke="black" cx="1033" cy="-522" rx="27" ry="18"/>
<text text-anchor="middle" x="1033" y="-516.95" font-family="Times,serif" font-size="14.00">rx</text>
</g>
<!-- jm&#45;&#45;rx -->
<g id="edge45" class="edge">
<title>jm&#45;&#45;rx</title>
<path fill="none" stroke="black" d="M1033,-575.7C1033,-564.85 1033,-550.92 1033,-540.1"/>
</g>
<!-- zx -->
<g id="node21" class="node">
<title>zx</title>
<ellipse fill="none" stroke="black" cx="207" cy="-522" rx="27" ry="18"/>
<text text-anchor="middle" x="207" y="-516.95" font-family="Times,serif" font-size="14.00">zx</text>
</g>
<!-- ll&#45;&#45;zx -->
<g id="edge15" class="edge">
<title>ll&#45;&#45;zx</title>
<path fill="none" stroke="black" d="M236.19,-576.76C230.05,-565.46 221.89,-550.44 215.77,-539.15"/>
</g>
<!-- zx&#45;&#45;bx -->
<g id="edge82" class="edge">
<title>zx&#45;&#45;bx</title>
<path fill="none" stroke="black" d="M203.64,-539.97C198.69,-566.52 190,-619.56 190,-665 190,-811 190,-811 190,-811 190,-859.88 219.45,-911.85 236.01,-937.22"/>
</g>
<!-- ms -->
<g id="node58" class="node">
<title>ms</title>
<ellipse fill="none" stroke="black" cx="169" cy="-450" rx="27" ry="18"/>
<text text-anchor="middle" x="169" y="-444.95" font-family="Times,serif" font-size="14.00">ms</text>
</g>
<!-- zx&#45;&#45;ms -->
<g id="edge83" class="edge">
<title>zx&#45;&#45;ms</title>
<path fill="none" stroke="black" d="M198.19,-504.76C192.05,-493.46 183.89,-478.44 177.77,-467.15"/>
</g>
<!-- hk&#45;&#45;bc -->
<g id="edge16" class="edge">
<title>hk&#45;&#45;bc</title>
<path fill="none" stroke="black" d="M511.67,-35.85C503.8,-62.25 490,-115.08 490,-161 490,-667 490,-667 490,-667 490,-711.73 501.99,-728.15 537,-756 588.3,-796.81 668.1,-806.37 709.69,-808.49"/>
</g>
<!-- db&#45;&#45;jm -->
<g id="edge17" class="edge">
<title>db&#45;&#45;jm</title>
<path fill="none" stroke="black" d="M989.77,-791.85C998.57,-751.78 1020.4,-652.38 1029.22,-612.23"/>
</g>
<!-- dg -->
<g id="node24" class="node">
<title>dg</title>
<ellipse fill="none" stroke="black" cx="283" cy="-666" rx="27" ry="18"/>
<text text-anchor="middle" x="283" y="-660.95" font-family="Times,serif" font-size="14.00">dg</text>
</g>
<!-- dg&#45;&#45;bx -->
<g id="edge18" class="edge">
<title>dg&#45;&#45;bx</title>
<path fill="none" stroke="black" d="M280.82,-684.31C274.39,-735.41 255.53,-885.22 249.14,-935.97"/>
</g>
<!-- dg&#45;&#45;ll -->
<g id="edge19" class="edge">
<title>dg&#45;&#45;ll</title>
<path fill="none" stroke="black" d="M274.19,-648.76C268.05,-637.46 259.89,-622.44 253.77,-611.15"/>
</g>
<!-- nd -->
<g id="node26" class="node">
<title>nd</title>
<ellipse fill="none" stroke="black" cx="1369" cy="-594" rx="27" ry="18"/>
<text text-anchor="middle" x="1369" y="-588.95" font-family="Times,serif" font-size="14.00">nd</text>
</g>
<!-- ks&#45;&#45;nd -->
<g id="edge20" class="edge">
<title>ks&#45;&#45;nd</title>
<path fill="none" stroke="black" d="M1463.66,-653.13C1442.7,-640.25 1409.43,-619.83 1388.43,-606.93"/>
</g>
<!-- nd&#45;&#45;gj -->
<g id="edge71" class="edge">
<title>nd&#45;&#45;gj</title>
<path fill="none" stroke="black" d="M1362.48,-611.82C1351.9,-639.14 1331.11,-692.82 1320.53,-720.15"/>
</g>
<!-- tr -->
<g id="node53" class="node">
<title>tr</title>
<ellipse fill="none" stroke="black" cx="1331" cy="-522" rx="27" ry="18"/>
<text text-anchor="middle" x="1331" y="-516.95" font-family="Times,serif" font-size="14.00">tr</text>
</g>
<!-- nd&#45;&#45;tr -->
<g id="edge72" class="edge">
<title>nd&#45;&#45;tr</title>
<path fill="none" stroke="black" d="M1360.19,-576.76C1354.05,-565.46 1345.89,-550.44 1339.77,-539.15"/>
</g>
<!-- sc -->
<g id="node27" class="node">
<title>sc</title>
<ellipse fill="none" stroke="black" cx="1378" cy="-810" rx="27" ry="18"/>
<text text-anchor="middle" x="1378" y="-804.95" font-family="Times,serif" font-size="14.00">sc</text>
</g>
<!-- sc&#45;&#45;gj -->
<g id="edge21" class="edge">
<title>sc&#45;&#45;gj</title>
<path fill="none" stroke="black" d="M1364.43,-794.15C1353.57,-782.28 1338.41,-765.7 1327.55,-753.82"/>
</g>
<!-- sc&#45;&#45;ks -->
<g id="edge22" class="edge">
<title>sc&#45;&#45;ks</title>
<path fill="none" stroke="black" d="M1389.64,-793.26C1409.93,-765.82 1451.53,-709.56 1471.63,-682.38"/>
</g>
<!-- st -->
<g id="node28" class="node">
<title>st</title>
<ellipse fill="none" stroke="black" cx="716" cy="-450" rx="27" ry="18"/>
<text text-anchor="middle" x="716" y="-444.95" font-family="Times,serif" font-size="14.00">st</text>
</g>
<!-- st&#45;&#45;bc -->
<g id="edge23" class="edge">
<title>st&#45;&#45;bc</title>
<path fill="none" stroke="black" d="M727.65,-466.21C735.21,-476.51 744.92,-490.63 752,-504 784.2,-564.84 796.11,-580.39 809,-648 819.96,-705.45 774.48,-766.79 750.69,-794.24"/>
</g>
<!-- st&#45;&#45;mm -->
<g id="edge24" class="edge">
<title>st&#45;&#45;mm</title>
<path fill="none" stroke="black" d="M703.63,-433.81C694.07,-422.07 680.9,-405.89 671.34,-394.16"/>
</g>
<!-- tb&#45;&#45;bx -->
<g id="edge27" class="edge">
<title>tb&#45;&#45;bx</title>
<path fill="none" stroke="black" d="M288.96,-97.2C340.1,-111.56 452,-152.22 452,-233 452,-811 452,-811 452,-811 452,-851.45 460.62,-870.45 433,-900 391.27,-944.64 314.86,-952.6 274.18,-953.46"/>
</g>
<!-- xf -->
<g id="node30" class="node">
<title>xf</title>
<ellipse fill="none" stroke="black" cx="1834" cy="-306" rx="27" ry="18"/>
<text text-anchor="middle" x="1834" y="-300.95" font-family="Times,serif" font-size="14.00">xf</text>
</g>
<!-- xf&#45;&#45;qq -->
<g id="edge28" class="edge">
<title>xf&#45;&#45;qq</title>
<path fill="none" stroke="black" d="M1848.67,-321.24C1871.77,-345.26 1914,-396.37 1914,-449 1914,-811 1914,-811 1914,-811 1914,-855.32 1903.71,-872.44 1869,-900 1812.51,-944.86 1723.55,-952.51 1679.13,-953.34"/>
</g>
<!-- qj -->
<g id="node31" class="node">
<title>qj</title>
<ellipse fill="none" stroke="black" cx="1650" cy="-234" rx="27" ry="18"/>
<text text-anchor="middle" x="1650" y="-228.95" font-family="Times,serif" font-size="14.00">qj</text>
</g>
<!-- xf&#45;&#45;qj -->
<g id="edge29" class="edge">
<title>xf&#45;&#45;qj</title>
<path fill="none" stroke="black" d="M1811.07,-296.28C1775.81,-282.86 1708.65,-257.31 1673.22,-243.83"/>
</g>
<!-- qj&#45;&#45;qq -->
<g id="edge34" class="edge">
<title>qj&#45;&#45;qq</title>
<path fill="none" stroke="black" d="M1630.75,-247.07C1598.72,-268.8 1538,-317.81 1538,-377 1538,-811 1538,-811 1538,-811 1538,-870.75 1600.14,-919.67 1632.66,-941.19"/>
</g>
<!-- hn -->
<g id="node33" class="node">
<title>hn</title>
<ellipse fill="none" stroke="black" cx="1786" cy="-450" rx="27" ry="18"/>
<text text-anchor="middle" x="1786" y="-444.95" font-family="Times,serif" font-size="14.00">hn</text>
</g>
<!-- gr&#45;&#45;hn -->
<g id="edge30" class="edge">
<title>gr&#45;&#45;hn</title>
<path fill="none" stroke="black" d="M1786,-503.7C1786,-492.85 1786,-478.92 1786,-468.1"/>
</g>
<!-- hn&#45;&#45;qq -->
<g id="edge80" class="edge">
<title>hn&#45;&#45;qq</title>
<path fill="none" stroke="black" d="M1760.25,-455.78C1704.17,-467.82 1576,-504.98 1576,-593 1576,-811 1576,-811 1576,-811 1576,-862.73 1615.69,-913.85 1637.7,-938.23"/>
</g>
<!-- gv -->
<g id="node57" class="node">
<title>gv</title>
<ellipse fill="none" stroke="black" cx="1834" cy="-378" rx="27" ry="18"/>
<text text-anchor="middle" x="1834" y="-372.95" font-family="Times,serif" font-size="14.00">gv</text>
</g>
<!-- hn&#45;&#45;gv -->
<g id="edge81" class="edge">
<title>hn&#45;&#45;gv</title>
<path fill="none" stroke="black" d="M1796.89,-433.12C1804.75,-421.66 1815.31,-406.26 1823.15,-394.82"/>
</g>
<!-- sf&#45;&#45;gj -->
<g id="edge51" class="edge">
<title>sf&#45;&#45;gj</title>
<path fill="none" stroke="black" d="M1217.07,-92.58C1285.87,-98.19 1462,-123.26 1462,-233 1462,-523 1462,-523 1462,-523 1462,-602.9 1435.2,-624.39 1382,-684 1367.55,-700.19 1347.65,-715.05 1333.12,-724.88"/>
</g>
<!-- pz -->
<g id="node35" class="node">
<title>pz</title>
<ellipse fill="none" stroke="black" cx="1064" cy="-18" rx="27" ry="18"/>
<text text-anchor="middle" x="1064" y="-12.95" font-family="Times,serif" font-size="14.00">pz</text>
</g>
<!-- sf&#45;&#45;pz -->
<g id="edge52" class="edge">
<title>sf&#45;&#45;pz</title>
<path fill="none" stroke="black" d="M1169.76,-77.75C1146.24,-64.69 1107.69,-43.27 1084.19,-30.22"/>
</g>
<!-- pz&#45;&#45;gj -->
<g id="edge33" class="edge">
<title>pz&#45;&#45;gj</title>
<path fill="none" stroke="black" d="M1043.19,-29.96C1007.41,-50.49 938,-98.38 938,-161 938,-595 938,-595 938,-595 938,-666.12 1005.55,-656.16 1071,-684 1145.5,-715.69 1241.22,-729.39 1287.12,-734.45"/>
</g>
<!-- sg&#45;&#45;jm -->
<g id="edge37" class="edge">
<title>sg&#45;&#45;jm</title>
<path fill="none" stroke="black" d="M1092.02,-650.83C1079.27,-638.77 1061.03,-621.51 1048.21,-609.38"/>
</g>
<!-- mn&#45;&#45;bc -->
<g id="edge102" class="edge">
<title>mn&#45;&#45;bc</title>
<path fill="none" stroke="black" d="M826.67,-870.67C805.17,-858.5 772.85,-838.23 753.31,-824.75"/>
</g>
<!-- mn&#45;&#45;hv -->
<g id="edge103" class="edge">
<title>mn&#45;&#45;hv</title>
<path fill="none" stroke="black" d="M860.09,-865.53C881.44,-838.22 925.58,-781.75 946.92,-754.45"/>
</g>
<!-- zh -->
<g id="node56" class="node">
<title>zh</title>
<ellipse fill="none" stroke="black" cx="716" cy="-522" rx="27" ry="18"/>
<text text-anchor="middle" x="716" y="-516.95" font-family="Times,serif" font-size="14.00">zh</text>
</g>
<!-- zl&#45;&#45;zh -->
<g id="edge79" class="edge">
<title>zl&#45;&#45;zh</title>
<path fill="none" stroke="black" d="M730.4,-576.05C727.41,-565.05 723.54,-550.76 720.56,-539.79"/>
</g>
<!-- xb&#45;&#45;zl -->
<g id="edge50" class="edge">
<title>xb&#45;&#45;zl</title>
<path fill="none" stroke="black" d="M764.19,-648.76C758.05,-637.46 749.89,-622.44 743.77,-611.15"/>
</g>
<!-- dh&#45;&#45;jm -->
<g id="edge86" class="edge">
<title>dh&#45;&#45;jm</title>
<path fill="none" stroke="black" d="M901.8,-722.6C929.79,-695.39 990.14,-636.68 1018.16,-609.44"/>
</g>
<!-- hv&#45;&#45;xb -->
<g id="edge62" class="edge">
<title>hv&#45;&#45;xb</title>
<path fill="none" stroke="black" d="M937.84,-726.57C933,-724.31 927.86,-722 923,-720 879.32,-702.03 827.07,-684.42 797.18,-674.7"/>
</g>
<!-- cv&#45;&#45;vq -->
<g id="edge46" class="edge">
<title>cv&#45;&#45;vq</title>
<path fill="none" stroke="black" d="M1688,-719.7C1688,-708.85 1688,-694.92 1688,-684.1"/>
</g>
<!-- vq&#45;&#45;bt -->
<g id="edge89" class="edge">
<title>vq&#45;&#45;bt</title>
<path fill="none" stroke="black" d="M1702.98,-650.83C1715.73,-638.77 1733.97,-621.51 1746.79,-609.38"/>
</g>
<!-- pm -->
<g id="node45" class="node">
<title>pm</title>
<ellipse fill="none" stroke="black" cx="359" cy="-810" rx="27" ry="18"/>
<text text-anchor="middle" x="359" y="-804.95" font-family="Times,serif" font-size="14.00">pm</text>
</g>
<!-- pm&#45;&#45;bx -->
<g id="edge47" class="edge">
<title>pm&#45;&#45;bx</title>
<path fill="none" stroke="black" d="M353.95,-828.13C347.73,-847.15 335.77,-878.05 318,-900 303.87,-917.45 282.76,-932.24 267.23,-941.72"/>
</g>
<!-- nq -->
<g id="node46" class="node">
<title>nq</title>
<ellipse fill="none" stroke="black" cx="321" cy="-738" rx="27" ry="18"/>
<text text-anchor="middle" x="321" y="-732.95" font-family="Times,serif" font-size="14.00">nq</text>
</g>
<!-- pm&#45;&#45;nq -->
<g id="edge48" class="edge">
<title>pm&#45;&#45;nq</title>
<path fill="none" stroke="black" d="M350.19,-792.76C344.05,-781.46 335.89,-766.44 329.77,-755.15"/>
</g>
<!-- nq&#45;&#45;bx -->
<g id="edge100" class="edge">
<title>nq&#45;&#45;bx</title>
<path fill="none" stroke="black" d="M318.44,-756.01C313.54,-786 301.39,-849.86 280,-900 274.3,-913.36 265.53,-927.26 258.46,-937.46"/>
</g>
<!-- nq&#45;&#45;dg -->
<g id="edge101" class="edge">
<title>nq&#45;&#45;dg</title>
<path fill="none" stroke="black" d="M312.19,-720.76C306.05,-709.46 297.89,-694.44 291.77,-683.15"/>
</g>
<!-- bt&#45;&#45;gr -->
<g id="edge49" class="edge">
<title>bt&#45;&#45;gr</title>
<path fill="none" stroke="black" d="M1767.81,-576.05C1771.58,-565.05 1776.48,-550.76 1780.24,-539.79"/>
</g>
<!-- pl&#45;&#45;rh -->
<g id="edge84" class="edge">
<title>pl&#45;&#45;rh</title>
<path fill="none" stroke="black" d="M1258.44,-892.64C1264.44,-895.13 1270.94,-897.74 1277,-900 1407.83,-948.86 1567.62,-999.03 1627.66,-1017.55"/>
</g>
<!-- pl&#45;&#45;qq -->
<g id="edge85" class="edge">
<title>pl&#45;&#45;qq</title>
<path fill="none" stroke="black" d="M1259.8,-890.58C1268.15,-893.93 1277.38,-897.64 1286,-900 1410,-933.88 1563.31,-946.92 1624.83,-951.2"/>
</g>
<!-- xh -->
<g id="node49" class="node">
<title>xh</title>
<ellipse fill="none" stroke="black" cx="131" cy="-378" rx="27" ry="18"/>
<text text-anchor="middle" x="131" y="-372.95" font-family="Times,serif" font-size="14.00">xh</text>
</g>
<!-- xh&#45;&#45;bx -->
<g id="edge63" class="edge">
<title>xh&#45;&#45;bx</title>
<path fill="none" stroke="black" d="M127.64,-395.97C122.69,-422.52 114,-475.56 114,-521 114,-811 114,-811 114,-811 114,-875.52 188.04,-922.81 225.63,-942.66"/>
</g>
<!-- xh&#45;&#45;vt -->
<g id="edge64" class="edge">
<title>xh&#45;&#45;vt</title>
<path fill="none" stroke="black" d="M122.19,-360.76C116.05,-349.46 107.89,-334.44 101.77,-323.15"/>
</g>
<!-- cl -->
<g id="node51" class="node">
<title>cl</title>
<ellipse fill="none" stroke="black" cx="1274" cy="-306" rx="27" ry="18"/>
<text text-anchor="middle" x="1274" y="-300.95" font-family="Times,serif" font-size="14.00">cl</text>
</g>
<!-- ld&#45;&#45;cl -->
<g id="edge65" class="edge">
<title>ld&#45;&#45;cl</title>
<path fill="none" stroke="black" d="M1274,-359.7C1274,-348.85 1274,-334.92 1274,-324.1"/>
</g>
<!-- cl&#45;&#45;jf -->
<g id="edge108" class="edge">
<title>cl&#45;&#45;jf</title>
<path fill="none" stroke="black" d="M1261.63,-289.81C1252.07,-278.07 1238.9,-261.89 1229.34,-250.16"/>
</g>
<!-- cl&#45;&#45;gj -->
<g id="edge109" class="edge">
<title>cl&#45;&#45;gj</title>
<path fill="none" stroke="black" d="M1296.78,-315.99C1338.74,-334.23 1424,-379.79 1424,-449 1424,-523 1424,-523 1424,-523 1424,-600.85 1401.04,-621.22 1355,-684 1345.51,-696.95 1334.33,-711.34 1326.05,-721.85"/>
</g>
<!-- xc&#45;&#45;bx -->
<g id="edge75" class="edge">
<title>xc&#45;&#45;bx</title>
<path fill="none" stroke="black" d="M377.25,-894.63C349.56,-908.61 299.81,-931.74 270.34,-944.28"/>
</g>
<!-- xc&#45;&#45;pm -->
<g id="edge76" class="edge">
<title>xc&#45;&#45;pm</title>
<path fill="none" stroke="black" d="M388.19,-864.76C382.05,-853.46 373.89,-838.44 367.77,-827.15"/>
</g>
<!-- tr&#45;&#45;gj -->
<g id="edge96" class="edge">
<title>tr&#45;&#45;gj</title>
<path fill="none" stroke="black" d="M1329.63,-540.23C1326.44,-580.38 1318.55,-679.78 1315.36,-719.85"/>
</g>
<!-- sz -->
<g id="node54" class="node">
<title>sz</title>
<ellipse fill="none" stroke="black" cx="1293" cy="-450" rx="27" ry="18"/>
<text text-anchor="middle" x="1293" y="-444.95" font-family="Times,serif" font-size="14.00">sz</text>
</g>
<!-- tr&#45;&#45;sz -->
<g id="edge97" class="edge">
<title>tr&#45;&#45;sz</title>
<path fill="none" stroke="black" d="M1322.19,-504.76C1316.05,-493.46 1307.89,-478.44 1301.77,-467.15"/>
</g>
<!-- sz&#45;&#45;gj -->
<g id="edge73" class="edge">
<title>sz&#45;&#45;gj</title>
<path fill="none" stroke="black" d="M1293.01,-468.41C1293.11,-486.36 1293.53,-515.16 1295,-540 1298.95,-606.54 1307.83,-685.36 1311.89,-719.64"/>
</g>
<!-- sz&#45;&#45;ld -->
<g id="edge74" class="edge">
<title>sz&#45;&#45;ld</title>
<path fill="none" stroke="black" d="M1288.4,-432.05C1285.41,-421.05 1281.54,-406.76 1278.56,-395.79"/>
</g>
<!-- xr&#45;&#45;gj -->
<g id="edge77" class="edge">
<title>xr&#45;&#45;gj</title>
<path fill="none" stroke="black" d="M1337.74,-864.43C1328.7,-837.36 1316.63,-783.91 1313.3,-756.35"/>
</g>
<!-- xr&#45;&#45;sc -->
<g id="edge78" class="edge">
<title>xr&#45;&#45;sc</title>
<path fill="none" stroke="black" d="M1353.58,-864.41C1358.68,-853.25 1365.38,-838.6 1370.47,-827.47"/>
</g>
<!-- zh&#45;&#45;bc -->
<g id="edge90" class="edge">
<title>zh&#45;&#45;bc</title>
<path fill="none" stroke="black" d="M709.11,-539.86C705.3,-550.12 700.94,-563.59 699,-576 686.33,-656.99 716.65,-753.64 730.52,-792.06"/>
</g>
<!-- zh&#45;&#45;st -->
<g id="edge91" class="edge">
<title>zh&#45;&#45;st</title>
<path fill="none" stroke="black" d="M716,-503.7C716,-492.85 716,-478.92 716,-468.1"/>
</g>
<!-- gv&#45;&#45;qq -->
<g id="edge87" class="edge">
<title>gv&#45;&#45;qq</title>
<path fill="none" stroke="black" d="M1842.3,-395.58C1854.54,-421.61 1876,-473.95 1876,-521 1876,-811 1876,-811 1876,-811 1876,-853.34 1873.3,-871.48 1842,-900 1796.06,-941.86 1719.75,-951.01 1679.23,-952.78"/>
</g>
<!-- gv&#45;&#45;xf -->
<g id="edge88" class="edge">
<title>gv&#45;&#45;xf</title>
<path fill="none" stroke="black" d="M1834,-359.7C1834,-348.85 1834,-334.92 1834,-324.1"/>
</g>
<!-- ms&#45;&#45;bx -->
<g id="edge98" class="edge">
<title>ms&#45;&#45;bx</title>
<path fill="none" stroke="black" d="M165.64,-467.97C160.69,-494.52 152,-547.56 152,-593 152,-811 152,-811 152,-811 152,-866.47 202.69,-916.67 230.02,-939.7"/>
</g>
<!-- ms&#45;&#45;xh -->
<g id="edge99" class="edge">
<title>ms&#45;&#45;xh</title>
<path fill="none" stroke="black" d="M160.19,-432.76C154.05,-421.46 145.89,-406.44 139.77,-395.15"/>
</g>
<!-- broadcaster -->
<g id="node59" class="node">
<title>broadcaster</title>
<ellipse fill="none" stroke="black" cx="1040" cy="-954" rx="53.4" ry="18"/>
<text text-anchor="middle" x="1040" y="-948.95" font-family="Times,serif" font-size="14.00">broadcaster</text>
</g>
<!-- broadcaster&#45;&#45;mn -->
<g id="edge92" class="edge">
<title>broadcaster&#45;&#45;mn</title>
<path fill="none" stroke="black" d="M1004.78,-940.16C966.03,-926.03 904.82,-903.71 871.5,-891.57"/>
</g>
<!-- broadcaster&#45;&#45;pl -->
<g id="edge93" class="edge">
<title>broadcaster&#45;&#45;pl</title>
<path fill="none" stroke="black" d="M1075.49,-940.32C1115.21,-926.14 1178.43,-903.56 1212.46,-891.41"/>
</g>
<!-- broadcaster&#45;&#45;xc -->
<g id="edge94" class="edge">
<title>broadcaster&#45;&#45;xc</title>
<path fill="none" stroke="black" d="M989.54,-947.51C860.46,-933.45 521.53,-896.56 423.76,-885.91"/>
</g>
<!-- broadcaster&#45;&#45;xr -->
<g id="edge95" class="edge">
<title>broadcaster&#45;&#45;xr</title>
<path fill="none" stroke="black" d="M1083.19,-943.15C1129.78,-932.52 1206.16,-915.08 1272,-900 1288.19,-896.29 1306.37,-892.11 1320.66,-888.83"/>
</g>
</g>
</svg>
